<?xml version="1.0" encoding="iso-8859-1"?>
<!-- Generator: Adobe Illustrator 19.0.0, SVG Export Plug-In . SVG Version: 6.00 Build 0)  -->
<svg version="1.1" id="Layer_1" xmlns="http://www.w3.org/2000/svg" xmlns:xlink="http://www.w3.org/1999/xlink" x="0px" y="0px"
	 viewBox="0 0 384 384" style="enable-background:new 0 0 384 384;" xml:space="preserve">
<g>
	<g>
		<g>
			<path d="M206.896,0.874c-3.958-1.688-8.458-0.885-11.563,2.042L85.479,106.665H10.667C4.771,106.665,0,111.436,0,117.332v149.333
				c0,5.896,4.771,10.667,10.667,10.667h74.813l109.854,103.75c2.021,1.917,4.667,2.917,7.333,2.917
				c1.417,0,2.854-0.281,4.229-0.875c3.896-1.677,6.438-5.531,6.438-9.792V10.665C213.333,6.405,210.792,2.551,206.896,0.874z
				 M192,348.582l-94.938-89.667c-1.979-1.875-4.604-2.917-7.333-2.917H21.333v-128h68.396c2.729,0,5.354-1.042,7.333-2.917
				L192,35.415V348.582z"/>
			<path d="M314.021,65.634c-4.938-3.083-11.563-1.656-14.708,3.354c-3.146,4.979-1.646,11.563,3.333,14.708
				c37.583,23.646,60.021,64.135,60.021,108.302c0,44.167-22.438,84.656-60.021,108.302c-4.979,3.146-6.479,9.729-3.333,14.708
				c2.021,3.229,5.479,4.99,9.021,4.99c1.958,0,3.917-0.531,5.688-1.635C357.833,290.78,384,243.551,384,191.999
				C384,140.447,357.833,93.218,314.021,65.634z"/>
		</g>
	</g>
</g>
<g>
</g>
<g>
</g>
<g>
</g>
<g>
</g>
<g>
</g>
<g>
</g>
<g>
</g>
<g>
</g>
<g>
</g>
<g>
</g>
<g>
</g>
<g>
</g>
<g>
</g>
<g>
</g>
<g>
</g>
</svg>
