<?xml version="1.0" encoding="iso-8859-1"?>
<!-- Generator: Adobe Illustrator 19.0.0, SVG Export Plug-In . SVG Version: 6.00 Build 0)  -->
<svg version="1.1" id="Layer_1" xmlns="http://www.w3.org/2000/svg" xmlns:xlink="http://www.w3.org/1999/xlink" x="0px" y="0px"
	 viewBox="0 0 469.333 469.333" style="enable-background:new 0 0 469.333 469.333;" xml:space="preserve">
<g>
	<g>
		<g>
			<path d="M206.885,43.544c-3.875-1.698-8.448-0.896-11.542,2.042L85.49,149.336H10.667C4.771,149.336,0,154.107,0,160.002v149.333
				c0,5.896,4.771,10.667,10.667,10.667H85.49l109.854,103.75c2.021,1.917,4.656,2.917,7.323,2.917c1.427,0,2.865-0.281,4.219-0.875
				c3.917-1.677,6.448-5.531,6.448-9.792V53.336C213.333,49.075,210.802,45.221,206.885,43.544z M192,391.252l-94.948-89.667
				c-1.979-1.875-4.604-2.917-7.323-2.917H21.333v-128h68.396c2.719,0,5.344-1.042,7.323-2.917L192,78.086V391.252z"/>
		</g>
	</g>
</g>
<g>
</g>
<g>
</g>
<g>
</g>
<g>
</g>
<g>
</g>
<g>
</g>
<g>
</g>
<g>
</g>
<g>
</g>
<g>
</g>
<g>
</g>
<g>
</g>
<g>
</g>
<g>
</g>
<g>
</g>
</svg>
