<?xml version="1.0" encoding="UTF-8" standalone="no"?>
<!-- Generator: Adobe Illustrator 19.0.0, SVG Export Plug-In . SVG Version: 6.00 Build 0)  -->

<svg
   version="1.1"
   id="Layer_1"
   x="0px"
   y="0px"
   viewBox="0 0 469.333 469.333"
   style="enable-background:new 0 0 469.333 469.333;"
   xml:space="preserve"
   sodipodi:docname="74%%volume-slash.svg"
   inkscape:version="1.2.1 (9c6d41e410, 2022-07-14)"
   xmlns:inkscape="http://www.inkscape.org/namespaces/inkscape"
   xmlns:sodipodi="http://sodipodi.sourceforge.net/DTD/sodipodi-0.dtd"
   xmlns="http://www.w3.org/2000/svg"
   xmlns:svg="http://www.w3.org/2000/svg"><defs
   id="defs43" /><sodipodi:namedview
   id="namedview41"
   pagecolor="#ffffff"
   bordercolor="#000000"
   borderopacity="0.25"
   inkscape:showpageshadow="2"
   inkscape:pageopacity="0.0"
   inkscape:pagecheckerboard="0"
   inkscape:deskcolor="#d1d1d1"
   showgrid="false"
   inkscape:zoom="1.8686093"
   inkscape:cx="211.38716"
   inkscape:cy="248.31302"
   inkscape:window-width="1920"
   inkscape:window-height="1047"
   inkscape:window-x="0"
   inkscape:window-y="33"
   inkscape:window-maximized="1"
   inkscape:current-layer="Layer_1" />
<g
   id="g8">
	<g
   id="g6">
		<g
   id="g4">
			<path
   d="M206.885,43.544c-3.875-1.698-8.448-0.896-11.542,2.042L85.49,149.336H10.667C4.771,149.336,0,154.107,0,160.002v149.333     c0,5.896,4.771,10.667,10.667,10.667H85.49l109.854,103.75c2.021,1.917,4.656,2.917,7.323,2.917c1.427,0,2.865-0.281,4.219-0.875     c3.917-1.677,6.448-5.531,6.448-9.792V53.336C213.333,49.075,210.802,45.221,206.885,43.544z M192,391.252l-94.948-89.667     c-1.979-1.875-4.604-2.917-7.323-2.917H21.333v-128h68.396c2.719,0,5.344-1.042,7.323-2.917L192,78.086V391.252z"
   id="path2" />
		</g>
	</g>
</g>
<g
   id="g10">
</g>
<g
   id="g12">
</g>
<g
   id="g14">
</g>
<g
   id="g16">
</g>
<g
   id="g18">
</g>
<g
   id="g20">
</g>
<g
   id="g22">
</g>
<g
   id="g24">
</g>
<g
   id="g26">
</g>
<g
   id="g28">
</g>
<g
   id="g30">
</g>
<g
   id="g32">
</g>
<g
   id="g34">
</g>
<g
   id="g36">
</g>
<g
   id="g38">
</g>
<rect
   style="fill:#000000;fill-opacity:1;stroke-width:0.911124"
   id="rect270"
   width="18.996454"
   height="471.50259"
   x="-13.171041"
   y="46.979481"
   ry="6.566926"
   transform="rotate(-35.150111)" /></svg>
