<?xml version="1.0" encoding="UTF-8" standalone="no"?>
<!-- Generator: Adobe Illustrator 19.0.0, SVG Export Plug-In . SVG Version: 6.00 Build 0)  -->

<svg version="1.1" id="Layer_1" xmlns="http://www.w3.org/2000/svg" xmlns:xlink="http://www.w3.org/1999/xlink" x="0px" y="0px"
	 viewBox="0 0 469.333 469.333" style="enable-background:new 0 0 469.333 469.333;" xml:space="preserve">
<g
   id="g6">
	<g
   id="g4">
		<path
   d="M292.228,0.873c-3.938-1.688-8.458-0.885-11.563,2.042l-109.854,103.75H95.999c-5.896,0-10.667,4.771-10.667,10.667    v149.333c0,5.896,4.771,10.667,10.667,10.667h74.813l109.854,103.75c2.021,1.917,4.667,2.917,7.333,2.917    c1.417,0,2.854-0.281,4.229-0.875c3.896-1.677,6.438-5.531,6.438-9.792V10.664C298.665,6.404,296.124,2.55,292.228,0.873z     M277.332,348.581l-94.938-89.667c-1.979-1.875-4.604-2.917-7.333-2.917h-68.396v-128h68.396c2.729,0,5.354-1.042,7.333-2.917    l94.938-89.667V348.581z"
   id="path2" />
	</g>
</g>
<g
   id="g8">
</g>
<g
   id="g10">
</g>
<g
   id="g12">
</g>
<g
   id="g14">
</g>
<g
   id="g16">
</g>
<g
   id="g18">
</g>
<g
   id="g20">
</g>
<g
   id="g22">
</g>
<g
   id="g24">
</g>
<g
   id="g26">
</g>
<g
   id="g28">
</g>
<g
   id="g30">
</g>
<g
   id="g32">
</g>
<g
   id="g34">
</g>
<g
   id="g36">
</g>
<rect
   style="fill:#000000;stroke-width:1.02202"
   id="rect931"
   width="22.438822"
   height="442.95297"
   x="70.657509"
   y="66.245949"
   ry="8.0827579"
   transform="rotate(-34.396591)" /><rect
   style="fill:#ffffff;stroke-width:0.904963;fill-opacity:1"
   id="rect931-3"
   width="17.593124"
   height="442.95297"
   x="53.934391"
   y="64.845108"
   ry="0"
   transform="matrix(0.82624613,-0.56330927,0.56329241,0.82625763,0,0)" /></svg>
